<svg id="Livello_1" data-name="Livello 1" xmlns="http://www.w3.org/2000/svg" xmlns:xlink="http://www.w3.org/1999/xlink" viewBox="0 0 1026.74 1282.08"><defs><style>.cls-1{fill:none;}.cls-2{clip-path:url(#clip-path);}.cls-3{fill:#faa916;}.cls-3,.cls-4{stroke:#000;}.cls-3,.cls-4,.cls-9{stroke-miterlimit:10;stroke-width:24px;}.cls-4{fill:#fbbb46;}.cls-5{fill:#fccd78;}.cls-6,.cls-9{fill:#fff;}.cls-7{fill:#0679cc;}.cls-8{fill:#007991;}.cls-9{stroke:#faa916;stroke-linecap:round;}</style><clipPath id="clip-path" transform="translate(-26.63 -18.87)"><path class="cls-1" d="M1053.37,156.51V771.43c0,283.53-229.84,513.37-513.37,513.37S26.63,1055,26.63,771.43V156.51Z"/></clipPath></defs><g class="cls-2"><path class="cls-3" d="M389.62,808l121.51-35.4a42.09,42.09,0,0,1,34.08,4.72L687.1,866a36,36,0,0,1,15.17,41.52l-10.43,32.39a8.29,8.29,0,0,0,11,10.24l50.14-20A38,38,0,0,0,776.81,897l2.65-45.81L554.09,718.35a21.11,21.11,0,0,0-21.94.3Z" transform="translate(-26.63 -18.87)"/><path class="cls-4" d="M406.17,781.52l129.34-65.86a15.37,15.37,0,0,1,14.79.45L750.58,834.19a54.93,54.93,0,0,1,26.94,50.5l-.95,16.38a11.39,11.39,0,0,0,16.66,10.75L826,894.63a32.65,32.65,0,0,0,14.74-42l-19.09-43.47a45.5,45.5,0,0,0-21.13-22.3L535.9,653.1Z" transform="translate(-26.63 -18.87)"/><path class="cls-5" d="M113.59,1171.94,244.7,738.31,525.75,542.4l291.6,161.33-2.25,90.44L535.9,653.1,406.17,781.52,371.73,815.6l2.89,71a11.92,11.92,0,0,0,16.3,10.59l139.74-55.37,71.22-234.23,72.86,57.09L624.67,931.91,302.36,1280.69Z" transform="translate(-26.63 -18.87)"/><path d="M94.57,1179.07,214.65,781.91a161.36,161.36,0,0,1,62.19-85.68L484.12,551.74a79.54,79.54,0,0,1,84-4.35L800.87,676.16a62,62,0,0,1,31.93,55.73l-1.08,43.56a28.24,28.24,0,0,1-41,24.5L677.36,742.66a.61.61,0,0,0-.88.43L651.84,874.56a229.21,229.21,0,0,1-57,113.38L305.8,1300.75a.61.61,0,0,1-.75.12L94.84,1179.77A.6.6,0,0,1,94.57,1179.07ZM248.51,781.49,132.89,1163.88a.61.61,0,0,0,.28.71L298.83,1260a.62.62,0,0,0,.76-.12L582,954.32a141.65,141.65,0,0,0,35.18-70l29.37-156.71a.6.6,0,0,0-.33-.65l-54.6-27.59a.61.61,0,0,0-.86.36L552.29,826.2a60.24,60.24,0,0,1-35.46,38.5L417.4,904.1a43.73,43.73,0,0,1-59.8-38.88l-1.19-29.13a61.13,61.13,0,0,1,18.07-45.93L522.07,644.07a21,21,0,0,1,24.21-3.81l24.32,12.29a.61.61,0,0,0,.86-.37l17-56.06a.6.6,0,0,0-.28-.71l-41.71-23.08a36.27,36.27,0,0,0-38.31,2L286.93,728.55A99.71,99.71,0,0,0,248.51,781.49ZM389,842.74l.65,15.87a15.2,15.2,0,0,0,20.79,13.52L494.12,839a52.12,52.12,0,0,0,30.67-33.29l36.77-121a.6.6,0,0,0-.3-.72l-9.54-4.82a19.82,19.82,0,0,0-22.87,3.6l-126,124.72A46.94,46.94,0,0,0,389,842.74ZM607.34,645.16l-16.23,53.36a.62.62,0,0,0,.31.72l54.48,27.53a.61.61,0,0,0,.87-.44l8.59-45.8a15.35,15.35,0,0,0-5.62-14.89l-30.8-24.13A7.37,7.37,0,0,0,607.34,645.16Zm69.38.6h0a32.81,32.81,0,0,1,12,31.89l-5.83,31.15a.6.6,0,0,0,.32.65L785.16,761A10.23,10.23,0,0,0,800,752.08l.37-14.78a39.9,39.9,0,0,0-20.57-35.89L677.39,644.75A.61.61,0,0,0,676.72,645.76Z" transform="translate(-26.63 -18.87)"/><rect class="cls-6" x="500.98" y="270.31" width="381.56" height="613.98" rx="20" transform="translate(310.85 -270) rotate(27)"/><path class="cls-7" d="M584.48,285.56H923.56a20,20,0,0,1,20,20V630.13a0,0,0,0,1,0,0H564.48a0,0,0,0,1,0,0V305.56A20,20,0,0,1,584.48,285.56Z" transform="translate(263.41 -311.29) rotate(27)"/><g id="Utente"><path class="cls-6" d="M789.69,584.74a2.55,2.55,0,0,1-1.13-.36,4.77,4.77,0,0,1-2.48-5.42,84.88,84.88,0,0,0-4.27-51,76.37,76.37,0,0,0-4.12-8.87,85.66,85.66,0,0,0-139.46-15.43A4.82,4.82,0,1,1,631,497.3a95.21,95.21,0,0,1,153.2,13.58l19-41.8-2.43-1-.18-.09a2.44,2.44,0,0,1,2-4.42l2.6,1.11,3.59-7.9a2.47,2.47,0,0,1,3.23-1.2l.09.05a2.51,2.51,0,0,1,1.11,3.18l-3.5,7.73,5.43,2.22a2.4,2.4,0,0,1,1.32,3.19,2.55,2.55,0,0,1-3.19,1.32l-5.6-2.3L791.2,507.14,821,480.8l-2.07-2.15a2.37,2.37,0,0,1,.11-3.44,2.45,2.45,0,0,1,3.44.12l2.12,2.28,6.4-5.7a2.45,2.45,0,0,1,3.28,3.64l-6.36,5.61,3.72,3.86a2.43,2.43,0,0,1-.11,3.44,2.29,2.29,0,0,1-2.75.46,2.66,2.66,0,0,1-.69-.57l-3.76-4L787.46,517a94,94,0,0,1,8,64.08A4.75,4.75,0,0,1,789.69,584.74Z" transform="translate(-26.63 -18.87)"/><path class="cls-6" d="M784.4,449.53a15.07,15.07,0,0,1-3.48-.58,19.38,19.38,0,0,1-34.48-17.54,15.71,15.71,0,0,1-2.64-2.58l-2.62-3.34a17.69,17.69,0,0,1-1.48-2.61l-1.45,2.86a3.15,3.15,0,0,0-.36.91,29.13,29.13,0,0,0,51.89,26.44,3.65,3.65,0,0,0,.53-.83l1.47-2.89a17.61,17.61,0,0,1-3.07.35Z" transform="translate(-26.63 -18.87)"/><path class="cls-6" d="M787.84,392.75a19.47,19.47,0,0,1,10.54,17.54q4.62,3.09,9,6.5a29.13,29.13,0,0,0-50.46-25.7q5.33,1.52,10.54,3.44A19.49,19.49,0,0,1,787.84,392.75Z" transform="translate(-26.63 -18.87)"/></g><path class="cls-6" d="M750,430.84a13,13,0,0,1-4.28-3.52L743.09,424a16.93,16.93,0,0,1-1.33-18.09l7.39-14.5,5.09,1.38A145.57,145.57,0,0,1,807.57,420l4.11,3.31-7.38,14.47a16.89,16.89,0,0,1-15.49,9.55l-4.31-.18a13,13,0,0,1-11.15-7.49l-4-8.61a1.13,1.13,0,0,0-1.38-.74L758.3,432A13.05,13.05,0,0,1,750,430.84Zm.52-36.38-6.43,12.62a14.3,14.3,0,0,0,1.06,15.3l2.61,3.33a10.46,10.46,0,0,0,10.09,3.76l9.62-1.76a3.75,3.75,0,0,1,4.22,2.19l4,8.61a10.33,10.33,0,0,0,8.9,6l4.31.18A14.29,14.29,0,0,0,802,436.55L808.4,424l-2.46-2a143.29,143.29,0,0,0-52.38-26.69Z" transform="translate(-26.63 -18.87)"/><path class="cls-6" d="M804.3,424A138,138,0,0,0,790,413.91c-.75-.47-1.48-.93-2.24-1.38A135.62,135.62,0,0,0,774,405.36a141,141,0,0,0-21.12-7.55l-1-.29-5.48,10.75a12.22,12.22,0,0,0-.54,10.22,9.55,9.55,0,0,0,1.34,2.29l2.6,3.31a7.46,7.46,0,0,0,5.53,2.9,2.31,2.31,0,0,0,.52.06,9.61,9.61,0,0,0,1.56-.14l6.56-1.2,3-.55a6.29,6.29,0,0,1,6,2,7.65,7.65,0,0,1,1.08,1.66l0,0,.74,1.57,2.05,4.4,1.21,2.6a7.59,7.59,0,0,0,6.67,4.51l4.31.18a11.71,11.71,0,0,0,10.62-6.72l5.47-10.72Zm-37.73-1.4a.18.18,0,0,0-.1,0l-8,1.45,14.64-16.25c1.39.65,2.77,1.32,4.15,2Zm8,2.52,9.73-11.58c.59.33,1.14.67,1.71,1l-10.21,12.19A9.83,9.83,0,0,0,774.61,425.12Zm2.49,4.1,11.19-13.31c1,.59,2,1.17,2.93,1.81l-12.53,14.91Z" transform="translate(-26.63 -18.87)"/><path d="M986,388.76a9.74,9.74,0,0,1,4.25,13.09L726.67,919.19a9.75,9.75,0,0,1-13.09,4.26L402.15,764.77a9.75,9.75,0,0,1-4.25-13.1L661.49,234.33a9.75,9.75,0,0,1,13.1-4.25L986,388.76m6.63-13L681.22,217.06a24.35,24.35,0,0,0-32.74,10.64L384.88,745a24.34,24.34,0,0,0,10.64,32.74L707,936.46a24.33,24.33,0,0,0,32.73-10.64l263.6-517.34a24.35,24.35,0,0,0-10.63-32.74Z" transform="translate(-26.63 -18.87)"/><path d="M771.79,711.79,516,581.44a9.73,9.73,0,1,1,8.84-17.34L780.63,694.44a9.74,9.74,0,1,1-8.84,17.35Z" transform="translate(-26.63 -18.87)"/><path d="M696.39,711.94l-196-99.87a9.74,9.74,0,1,1,8.84-17.35l196,99.87a9.74,9.74,0,0,1-8.84,17.35Z" transform="translate(-26.63 -18.87)"/><path d="M567.68,786.6l-124-63.19a9.74,9.74,0,1,1,8.84-17.35l124,63.19a9.74,9.74,0,0,1-8.84,17.35Z" transform="translate(-26.63 -18.87)"/><path d="M508.45,787.86l-77.52-39.5A9.74,9.74,0,0,1,439.77,731l77.52,39.5a9.74,9.74,0,1,1-8.84,17.35Z" transform="translate(-26.63 -18.87)"/><path d="M595.66,832.3l-66.72-34A9.74,9.74,0,1,1,537.78,781l66.72,34a9.74,9.74,0,0,1-8.84,17.35Z" transform="translate(-26.63 -18.87)"/><rect class="cls-6" x="426.11" y="214.69" width="381.56" height="613.98" rx="20" transform="translate(176.82 -191.29) rotate(19)"/><path class="cls-8" d="M492.39,222.43H831.46a20,20,0,0,1,20,20V567a0,0,0,0,1,0,0H472.39a0,0,0,0,1,0,0V242.43a20,20,0,0,1,20-20Z" transform="translate(137.94 -212.87) rotate(19)"/><g id="Utente-2" data-name="Utente"><path class="cls-6" d="M714.91,515.41a2.42,2.42,0,0,1-1.17-.2,4.77,4.77,0,0,1-3.21-5,84.73,84.73,0,0,0-11.34-49.94,75.3,75.3,0,0,0-5.3-8.21,85.67,85.67,0,0,0-140.26,4.13,4.81,4.81,0,0,1-8.07-5.25A95.19,95.19,0,0,1,699.15,443l13-44-2.55-.67-.19-.07a2.44,2.44,0,0,1-1.57-2.91,2.41,2.41,0,0,1,3-1.75l2.73.73L716,386a2.47,2.47,0,0,1,3-1.63l.09,0a2.52,2.52,0,0,1,1.54,3l-2.39,8.14L724,397a2.41,2.41,0,0,1,1.76,3,2.55,2.55,0,0,1-3,1.76l-5.87-1.51L705.6,438.36l25.86-30.23-2.35-1.84a2.38,2.38,0,0,1-.37-3.42,2.46,2.46,0,0,1,3.42-.37l2.41,2,5.55-6.53a2.45,2.45,0,0,1,3.76,3.15l-5.52,6.44,4.22,3.3a2.43,2.43,0,0,1,.37,3.43,2.29,2.29,0,0,1-2.66.83,2.7,2.7,0,0,1-.77-.47l-4.27-3.43-32,37.51A94,94,0,0,1,720.13,511,4.75,4.75,0,0,1,714.91,515.41Z" transform="translate(-26.63 -18.87)"/><path class="cls-6" d="M690.85,382.26a14.89,14.89,0,0,1-3.53-.1,19.38,19.38,0,0,1-36.58-12.57,15.33,15.33,0,0,1-3-2.18l-3.06-2.94a17.6,17.6,0,0,1-1.83-2.39l-1,3a3.3,3.3,0,0,0-.23.95,29.13,29.13,0,0,0,55.06,19,3.24,3.24,0,0,0,.41-.89l1.06-3.07a17.51,17.51,0,0,1-3,.77Z" transform="translate(-26.63 -18.87)"/><path class="cls-6" d="M686.36,325.55a19.49,19.49,0,0,1,12.88,15.9q5,2.42,9.8,5.19a29.12,29.12,0,0,0-53.54-18.43q5.49.77,10.92,1.94A19.49,19.49,0,0,1,686.36,325.55Z" transform="translate(-26.63 -18.87)"/></g><path class="cls-6" d="M654.18,368.54a13,13,0,0,1-4.73-2.89l-3.06-2.94A16.91,16.91,0,0,1,642.56,345l5.3-15.4,5.23.66a145.78,145.78,0,0,1,56.59,19.49l4.53,2.7-5.29,15.36a16.9,16.9,0,0,1-14,11.61l-4.29.42A13,13,0,0,1,678.53,374l-5.18-8a1.14,1.14,0,0,0-1.48-.55l-9.3,3.1A13,13,0,0,1,654.18,368.54Zm-4.55-36.1L645,345.83c-1.87,5.46-.63,11.35,3.18,15l3.06,2.94a10.44,10.44,0,0,0,10.51,2.32L671,363a3.76,3.76,0,0,1,4.49,1.59l5.18,8a10.31,10.31,0,0,0,9.65,4.69l4.3-.41a14.3,14.3,0,0,0,11.8-9.88l4.6-13.36L708.35,352a143,143,0,0,0-55.58-19.14Z" transform="translate(-26.63 -18.87)"/><path class="cls-6" d="M707,354.21a134.8,134.8,0,0,0-15.58-8c-.81-.36-1.59-.71-2.41-1.05a134.7,134.7,0,0,0-14.6-5.19,141.64,141.64,0,0,0-22-4.54l-1.05-.14-3.93,11.4a12.18,12.18,0,0,0,.89,10.2A9.47,9.47,0,0,0,650,359l3,2.92a7.45,7.45,0,0,0,5.87,2.1,3.09,3.09,0,0,0,.53,0,10,10,0,0,0,1.52-.35l6.34-2.11,2.88-1a6.27,6.27,0,0,1,6.21,1.12,7.21,7.21,0,0,1,1.3,1.49l0,0,1,1.45,2.64,4.07,1.56,2.41a7.58,7.58,0,0,0,7.22,3.53l4.3-.42a11.7,11.7,0,0,0,9.59-8.13l3.92-11.38Zm-37.56,3.86s-.05,0-.09,0l-7.69,2.55L673.9,342.5c1.46.45,2.92.93,4.38,1.4Zm8.32,1.38,8-12.83,1.83.75-8.41,13.48A10,10,0,0,0,677.76,359.45Zm3,3.71L690,348.42c1.05.44,2.11.89,3.15,1.38l-10.33,16.51Z" transform="translate(-26.63 -18.87)"/><path d="M882.05,294a9.75,9.75,0,0,1,6,12.38l-189,549a9.76,9.76,0,0,1-12.38,6L356.2,747.62a9.73,9.73,0,0,1-6-12.37l189-549a9.75,9.75,0,0,1,12.38-6L882.05,294m4.75-13.81L556.32,166.41a24.33,24.33,0,0,0-30.93,15.09l-189,549a24.35,24.35,0,0,0,15.09,30.94l330.48,113.8a24.35,24.35,0,0,0,30.94-15.09l189-549A24.34,24.34,0,0,0,886.8,280.2Z" transform="translate(-26.63 -18.87)"/><path d="M714.87,643.71,443.4,550.24a9.74,9.74,0,0,1,6.34-18.41L721.21,625.3a9.74,9.74,0,0,1-6.34,18.41Z" transform="translate(-26.63 -18.87)"/><path d="M640.22,654.36l-208-71.62a9.74,9.74,0,0,1,6.34-18.41l208,71.62a9.74,9.74,0,0,1-6.34,18.41Z" transform="translate(-26.63 -18.87)"/><path d="M523.15,746.21,391.53,700.89a9.74,9.74,0,0,1,6.34-18.41L529.49,727.8a9.74,9.74,0,1,1-6.34,18.41Z" transform="translate(-26.63 -18.87)"/><path d="M464.68,755.7l-82.27-28.33A9.74,9.74,0,0,1,388.75,709L471,737.29a9.73,9.73,0,1,1-6.33,18.41Z" transform="translate(-26.63 -18.87)"/><path d="M557.22,787.56l-70.8-24.38a9.73,9.73,0,1,1,6.33-18.41l70.81,24.38a9.74,9.74,0,0,1-6.34,18.41Z" transform="translate(-26.63 -18.87)"/><path d="M393.9,905.62" transform="translate(-26.63 -18.87)"/><path class="cls-5" d="M590.63,945a97.16,97.16,0,0,0,24.19-48.15l41.67-222.36a5.12,5.12,0,0,0-1.88-5l-6-4.69a33.2,33.2,0,0,0-52.25,16.48l-41.7,137.15a76.78,76.78,0,0,1-44.39,48.87l75.65,82.79Z" transform="translate(-26.63 -18.87)"/><path d="M614.34,966.88,607.78,974l-10.93-12-10.92-12,4.7-5.09a97.31,97.31,0,0,0,24.2-48.14l41.66-222.35a5.11,5.11,0,0,0-1.88-5l-6-4.69a33.2,33.2,0,0,0-52.25,16.47L554.66,818.38a76.71,76.71,0,0,1-44.38,48.87l-11.63-12.72L487,841.78l10.33-4.09A44.68,44.68,0,0,0,523.77,809l41.71-137.14a65.49,65.49,0,0,1,103.06-32.51l6,4.69a37.31,37.31,0,0,1,13.71,36.37L646.55,902.76A129.44,129.44,0,0,1,614.34,966.88Z" transform="translate(-26.63 -18.87)"/></g><path d="M971.41,493.06l-12.68,24.87A489.79,489.79,0,1,1,478.9,285.81l8.64-25.11C228.66,287,26.63,505.61,26.63,771.43c0,283.52,229.84,513.36,513.37,513.36S1053.37,1055,1053.37,771.43A511,511,0,0,0,971.41,493.06Z" transform="translate(-26.63 -18.87)"/><line class="cls-9" x1="450.95" y1="160.82" x2="349.21" y2="137.63"/><line class="cls-9" x1="483.65" y1="126.91" x2="379.54" y2="61.03"/><line class="cls-9" x1="518.12" y1="113.12" x2="483.45" y2="12"/><line class="cls-9" x1="555.2" y1="113.12" x2="590.26" y2="12"/></svg>